<svg width="48" height="48" viewBox="0 0 48 48" fill="none" xmlns="http://www.w3.org/2000/svg">
<rect width="48" height="48" fill="white"/>
<path d="M28.5 43C28.5 43.0338 28.4808 43.3046 27.8928 43.7681C27.3216 44.2182 26.4021 44.6892 25.1323 45.1125C22.6082 45.9539 19.0258 46.5 15 46.5C10.9742 46.5 7.39182 45.9539 4.86774 45.1125C3.59786 44.6892 2.67841 44.2182 2.10724 43.7681C1.51915 43.3046 1.5 43.0338 1.5 43C1.5 42.9662 1.51915 42.6954 2.10724 42.2319C2.67841 41.7818 3.59786 41.3108 4.86774 40.8875C7.39182 40.0461 10.9742 39.5 15 39.5C19.0258 39.5 22.6082 40.0461 25.1323 40.8875C26.4021 41.3108 27.3216 41.7818 27.8928 42.2319C28.4808 42.6954 28.5 42.9662 28.5 43Z" stroke="#243965" stroke-width="3"/>
<path d="M28.5 13.76C28.5 17.286 26.8959 24.3877 24.227 30.641C22.899 33.7525 21.3511 36.5475 19.6877 38.5381C17.9895 40.5703 16.3987 41.5 15 41.5C13.6013 41.5 12.0105 40.5703 10.3123 38.5381C8.64892 36.5475 7.10098 33.7525 5.773 30.641C3.10412 24.3877 1.5 17.286 1.5 13.76C1.5 7.1082 7.41969 1.5 15 1.5C22.5803 1.5 28.5 7.1082 28.5 13.76Z" fill="white" stroke="#243965" stroke-width="3"/>
<circle cx="15" cy="15" r="4.5" stroke="#FF498B" stroke-width="3"/>
</svg>
