<svg width="48" height="48" viewBox="0 0 48 48" fill="none" xmlns="http://www.w3.org/2000/svg">
<rect width="48" height="48" fill="white"/>
<path d="M32 13V18" stroke="#243965" stroke-width="3" stroke-linecap="round"/>
<path d="M18 13V18" stroke="#243965" stroke-width="3" stroke-linecap="round"/>
<path d="M11.3575 20.1679C11.6357 19.7507 12.104 19.5 12.6056 19.5H36.2769C36.8104 19.5 37.3037 19.7834 37.5726 20.2442L41.0726 26.2442C41.6559 27.2442 40.9346 28.5 39.7769 28.5H8.60555C7.40751 28.5 6.69292 27.1648 7.35748 26.1679L11.3575 20.1679Z" stroke="#243965" stroke-width="3"/>
<path d="M11.5 29.5H16.5V42C16.5 43.3807 15.3807 44.5 14 44.5C12.6193 44.5 11.5 43.3807 11.5 42V29.5Z" stroke="#243965" stroke-width="3"/>
<path d="M15.5 5.5H20.5V9C20.5 10.3807 19.3807 11.5 18 11.5C16.6193 11.5 15.5 10.3807 15.5 9V5.5Z" stroke="#FF498B" stroke-width="3"/>
<path d="M29.5 5.5H34.5V9C34.5 10.3807 33.3807 11.5 32 11.5C30.6193 11.5 29.5 10.3807 29.5 9V5.5Z" stroke="#FF498B" stroke-width="3"/>
<path d="M33.5 29.5H38.5V42C38.5 43.3807 37.3807 44.5 36 44.5C34.6193 44.5 33.5 43.3807 33.5 42V29.5Z" stroke="#243965" stroke-width="3"/>
</svg>
