<svg width="48" height="48" viewBox="0 0 48 48" fill="none" xmlns="http://www.w3.org/2000/svg">
<rect width="48" height="48" fill="white"/>
<path d="M21.0979 6.8541C21.6966 5.01148 24.3034 5.01148 24.9021 6.8541L27.7148 15.5106C27.9825 16.3347 28.7505 16.8926 29.6169 16.8926H38.7189C40.6564 16.8926 41.4619 19.3718 39.8945 20.5106L32.5308 25.8607C31.8298 26.37 31.5365 27.2727 31.8043 28.0967L34.6169 36.7533C35.2157 38.5959 33.1067 40.1282 31.5393 38.9894L24.1756 33.6393C23.4746 33.13 22.5254 33.13 21.8244 33.6393L14.4607 38.9894C12.8933 40.1282 10.7843 38.5959 11.3831 36.7533L14.1957 28.0967C14.4635 27.2727 14.1702 26.37 13.4692 25.8607L6.1055 20.5106C4.53807 19.3718 5.34362 16.8926 7.28107 16.8926H16.3831C17.2495 16.8926 18.0175 16.3347 18.2852 15.5106L21.0979 6.8541Z" fill="#DEDBCC"/>
</svg>
