<svg width="48" height="48" viewBox="0 0 48 48" fill="none" xmlns="http://www.w3.org/2000/svg">
<g clip-path="url(#clip0)">
<rect width="48" height="48" fill="white"/>
<path d="M1.5 10C1.5 8.61929 2.61929 7.5 4 7.5H44C45.3807 7.5 46.5 8.61929 46.5 10V19.5H1.5V10Z" stroke="#243965" stroke-width="3"/>
<path d="M47 21V25" stroke="#243965" stroke-width="3" stroke-linecap="round"/>
<path d="M1 21L1 25" stroke="#243965" stroke-width="3" stroke-linecap="round"/>
<line x1="1.5" y1="25.5" x2="46.5" y2="25.5" stroke="#243965" stroke-width="3" stroke-linecap="round"/>
<line x1="16.5" y1="13.5" x2="28.5" y2="13.5" stroke="#FF498B" stroke-width="3" stroke-linecap="round"/>
<path d="M10 30C12.2639 31.6667 15.4333 36.2 10 41" stroke="#243965" stroke-width="3" stroke-linecap="round"/>
<path d="M15 30C17.2639 31.6667 20.4333 36.2 15 41" stroke="#243965" stroke-width="3" stroke-linecap="round"/>
<path d="M33 41C30.7361 39.3333 27.5667 34.8 33 30" stroke="#243965" stroke-width="3" stroke-linecap="round"/>
<path d="M38 41C35.7361 39.3333 32.5667 34.8 38 30" stroke="#243965" stroke-width="3" stroke-linecap="round"/>
</g>
<defs>
<clipPath id="clip0">
<rect width="48" height="48" fill="white"/>
</clipPath>
</defs>
</svg>
