<svg width="48" height="48" viewBox="0 0 48 48" fill="none" xmlns="http://www.w3.org/2000/svg">
<rect width="48" height="48" fill="white"/>
<mask id="path-1-inside-1" fill="white">
<path fill-rule="evenodd" clip-rule="evenodd" d="M16.0979 8C15.4141 8 14.7777 8.34935 14.4106 8.92625L11.3636 13.7143H8C3.58172 13.7143 0 17.296 0 21.7143V32C0 36.4183 3.58172 40 8 40H40C44.4183 40 48 36.4183 48 32V21.7143C48 17.296 44.4183 13.7143 40 13.7143H36.6364L33.5894 8.92625C33.2223 8.34935 32.5859 8 31.9021 8H16.0979Z"/>
</mask>
<path d="M14.4106 8.92625L16.9416 10.5369L16.9416 10.5369L14.4106 8.92625ZM11.3636 13.7143V16.7143H13.0105L13.8946 15.3249L11.3636 13.7143ZM36.6364 13.7143L34.1054 15.3249L34.9895 16.7143H36.6364V13.7143ZM33.5894 8.92625L31.0584 10.5369L31.0584 10.5369L33.5894 8.92625ZM16.9416 10.5369C16.758 10.8253 16.4398 11 16.0979 11V5C14.3884 5 12.7974 5.87338 11.8796 7.31563L16.9416 10.5369ZM13.8946 15.3249L16.9416 10.5369L11.8796 7.31562L8.83265 12.1037L13.8946 15.3249ZM8 16.7143H11.3636V10.7143H8V16.7143ZM3 21.7143C3 18.9529 5.23858 16.7143 8 16.7143V10.7143C1.92487 10.7143 -3 15.6392 -3 21.7143H3ZM3 32V21.7143H-3V32H3ZM8 37C5.23858 37 3 34.7614 3 32H-3C-3 38.0751 1.92487 43 8 43V37ZM40 37H8V43H40V37ZM45 32C45 34.7614 42.7614 37 40 37V43C46.0751 43 51 38.0751 51 32H45ZM45 21.7143V32H51V21.7143H45ZM40 16.7143C42.7614 16.7143 45 18.9529 45 21.7143H51C51 15.6392 46.0751 10.7143 40 10.7143V16.7143ZM36.6364 16.7143H40V10.7143H36.6364V16.7143ZM31.0584 10.5369L34.1054 15.3249L39.1673 12.1037L36.1204 7.31562L31.0584 10.5369ZM31.9021 11C31.5602 11 31.242 10.8253 31.0584 10.5369L36.1204 7.31563C35.2026 5.87338 33.6116 5 31.9021 5V11ZM16.0979 11H31.9021V5H16.0979V11Z" fill="#243965" mask="url(#path-1-inside-1)"/>
<circle cx="24" cy="26" r="6.5" stroke="#FF498B" stroke-width="3"/>
<line x1="35" y1="21" x2="40" y2="21" stroke="#243965" stroke-width="2" stroke-linecap="round"/>
</svg>
